<?xml version="1.0" standalone="no"?>
<!DOCTYPE svg PUBLIC "-//W3C//DTD SVG 20010904//EN"
 "http://www.w3.org/TR/2001/REC-SVG-20010904/DTD/svg10.dtd">
<svg version="1.0" xmlns="http://www.w3.org/2000/svg"
 width="700.000000pt" height="700.000000pt" viewBox="0 0 700.000000 700.000000"
 preserveAspectRatio="xMidYMid meet">
<metadata>
Created by potrace 1.11, written by Peter Selinger 2001-2013
</metadata>
<g transform="translate(0.000000,700.000000) scale(0.100000,-0.100000)"
fill="#000000" stroke="none">
<path d="M205 6988 c-34 -18 -67 -52 -77 -78 -6 -16 -10 -1198 -10 -3293 0
-3187 1 -3269 19 -3304 12 -22 35 -45 58 -57 39 -20 51 -20 2500 -20 l2461 0
36 22 c94 58 87 195 -12 244 -30 15 -65 18 -247 18 l-211 0 0 938 0 938 218 0
c205 1 220 2 253 23 69 43 88 151 36 208 -45 48 -72 53 -298 53 l-209 0 0 938
0 939 938 0 938 0 1 -204 c1 -224 5 -243 62 -283 41 -30 119 -32 157 -3 15 11
35 34 46 52 18 30 18 84 18 1397 0 1542 6 1424 -77 1464 -41 20 -51 20 -3311
20 -2369 -1 -3275 -4 -3289 -12z m2072 -1210 l1 -938 -938 0 -938 0 0 938 -1
939 937 -1 937 -1 2 -937z m2159 0 l2 -938 -938 0 -937 0 -1 938 0 939 937 -1
936 -1 1 -937z m2156 929 c4 -6 7 -429 7 -939 l0 -928 -939 0 -938 0 0 938 0
938 931 1 c640 0 934 -3 939 -10z m-4315 -3090 l1 -937 -936 2 -937 3 -2 925
c-1 509 0 930 2 936 2 8 274 10 937 10 l933 -1 2 -938z m2161 1 l0 -938 -937
2 -936 3 -1 936 -2 936 938 0 938 0 0 -939z m-2161 -2160 l2 -938 -938 0 -939
0 0 933 c0 512 2 935 3 938 2 3 424 5 937 5 l933 -1 2 -937z m2160 0 l1 -938
-938 0 -938 0 0 938 0 938 937 0 936 -1 2 -937z"/>
<path d="M1378 6470 c-36 -11 -59 -29 -206 -168 -287 -269 -301 -284 -313
-319 -39 -118 90 -225 198 -165 17 9 71 54 119 99 47 46 89 81 93 79 3 -2 6
-181 5 -398 -1 -423 0 -437 51 -484 46 -42 139 -41 188 4 43 39 44 49 43 667
l-1 590 -23 36 c-31 51 -97 76 -154 59z"/>
<path d="M2967 4269 c-73 -12 -120 -67 -119 -141 1 -50 26 -91 72 -117 36 -20
51 -21 455 -21 405 -1 419 -1 444 -21 54 -43 65 -99 31 -154 -11 -18 -35 -38
-52 -44 -19 -7 -125 -11 -275 -11 -269 0 -293 -4 -333 -59 -55 -78 -14 -197
74 -217 17 -4 142 -8 278 -8 234 -1 248 -2 275 -22 40 -30 55 -62 49 -109 -5
-45 -51 -94 -89 -96 -12 -1 -200 -2 -417 -4 -217 -1 -403 -3 -412 -4 -28 -2
-83 -57 -94 -93 -21 -70 19 -153 85 -176 14 -5 220 -8 461 -7 423 1 437 2 491
23 125 49 216 148 249 271 28 104 7 229 -54 321 l-24 37 19 29 c48 71 69 140
70 227 1 109 -36 200 -113 279 -51 52 -145 103 -213 114 -49 9 -809 11 -858 3z"/>
<path d="M6234 3914 c-15 -8 -37 -25 -48 -37 -71 -76 -453 -533 -465 -555 -12
-23 -15 -259 -15 -1624 l0 -1596 24 -35 c44 -65 18 -62 553 -64 525 -3 516 -4
563 49 12 12 25 34 29 47 12 38 8 3182 -4 3213 -9 24 -191 250 -250 310 -14
14 -37 41 -51 59 -14 18 -31 39 -38 46 -8 7 -41 46 -74 86 -91 109 -153 137
-224 101z m187 -494 c176 -206 179 -210 179 -229 0 -16 -22 -17 -305 -17
l-306 0 3 23 c2 17 298 378 304 370 1 -1 57 -67 125 -147z m178 -1542 l0
-1013 -302 0 -302 0 -3 1013 -2 1012 304 0 304 0 1 -1012z m-12 -1297 c10 -1
12 -37 10 -148 l-2 -148 -300 0 -300 0 -3 147 -3 147 28 3 c22 2 516 1 570 -1z"/>
</g>
</svg>
